<?xml version="1.0" encoding="UTF-8"?>
<svg viewBox="0 0 2785.29 868.66388" xmlns="http://www.w3.org/2000/svg" xmlns:xlink="http://www.w3.org/1999/xlink">
 <defs>
  <linearGradient id="a">
   <stop stop-color="#6e6e6e" offset="0"/>
   <stop stop-color="#141414" offset="1"/>
  </linearGradient>
  <radialGradient id="f" cx="596.62" cy="686.89" r="86.214" gradientTransform="matrix(1.1268 1.6741 -.96485 .64941 -91.454 -1067.5)" gradientUnits="userSpaceOnUse">
   <stop stop-color="#6e6e6e" offset="0"/>
   <stop offset="1"/>
  </radialGradient>
  <radialGradient id="h" cx="202.35" cy="537.83" r="90.602" gradientTransform="matrix(.30103 1.7058 -1.1092 .19574 161.45 -152.16)" gradientUnits="userSpaceOnUse" xlink:href="#a"/>
  <radialGradient id="g" cx="386.64" cy="347.99" r="95.707" gradientTransform="matrix(1 0 0 .58886 -564.11 -81.176)" gradientUnits="userSpaceOnUse" xlink:href="#a"/>
  <radialGradient id="e" cx="623.7" cy="555.87" r="16.34" gradientTransform="matrix(1 0 0 4.1834 -564.11 -2036.7)" gradientUnits="userSpaceOnUse" xlink:href="#a"/>
  <radialGradient id="d" cx="549.02" cy="815.95" r="54.543" gradientTransform="matrix(1 0 0 .70161 -564.11 6.2467)" gradientUnits="userSpaceOnUse" xlink:href="#a"/>
  <radialGradient id="c" cx="232.34" cy="819.39" r="91.919" gradientTransform="matrix(.26908 .77821 -.79142 .27366 254.2 182.16)" gradientUnits="userSpaceOnUse" xlink:href="#a"/>
  <radialGradient id="b" cx="77.143" cy="694.38" r="11.214" gradientTransform="matrix(.93631 1.1465 -2.7478 2.2441 1348.9 -1213.7)" gradientUnits="userSpaceOnUse" xlink:href="#a"/>
 </defs>
 <g transform="translate(1222.4 24.873)">
  <g id="i" transform="translate(504.29 -88.574)">
   <path d="m155.71 505.22c13.766-9.3067 94.25-25.087 106.39-12.944 31.012 31.012 48.339 58.715 36.133 108.56-8.5714 35-73.109 88.92-96.811 90.102-26.405 1.3159-72.516-44.627-78.99-74.806-3.921-18.277 17.678-102.3 33.276-110.91z" fill="url(#h)" fill-rule="evenodd" stroke="#000"/>
   <path d="m262.44 492.61c8.9428-34.18 72.949-71.821 84.704-73.102 20.3-2.2129 111.1 24.451 120 34.286 13.674 15.108 37.546 94.504 34.286 114.29-36.596 16.752-76.586 66.8-87.23 82.02-53.07-25.691-102.67-38.917-117.47-41.847-3.3424-29.397-22.015-89.038-34.286-115.64z" fill="#fff" fill-rule="evenodd" stroke="#000"/>
   <path d="m349.51 419c-10.102-27.653-10.102-39.648-14.647-65.66 65.66-16.415 133.34-8.46 190.41 64.65-11.617 14.016-17.173 21.971-53.033 39.901-29.294-20.961-87.883-31.946-122.73-38.891z" fill="url(#g)" fill-rule="evenodd" stroke="#000"/>
   <path d="m149 451.32c0.12627-13.637 57.2-55.306 63.135-68.185 60.483-30.557 124.25-29.8 124.25-29.8l13.132 65.155-88.893 73.236-103.54 12.627s-13.763-21.213-8.0812-53.033z" fill="#fff" fill-rule="evenodd" stroke="#000"/>
   <path transform="matrix(.96693 0 0 .98412 -270.08 6.0403)" d="m375.21 755.82a301.43 290.36 0 1 1 0.19056 0.37272" fill="none" stroke="#000" stroke-linejoin="round" stroke-width="6.0871"/>
   <path d="m147.86 451.65s-8.9286-0.71429-19.286-11.429c14.643-18.571 44.107-42.5 77.857-62.857 5.1786 8.2143 7.1429 3.5714 7.1429 3.5714l-65.714 70.714z" fill-rule="evenodd" stroke="#000"/>
   <path d="m470 458.08c45-20.536 39.643-21.607 54.286-40.714 27.5 10.179 35.714 7.1429 35.714 7.1429s36.964 30 52.857 74.286 10.714 102.86 10.714 102.86l-38.571 31.429s-26.25-40.536-83.571-65c-3.75-32.321-10-69.464-31.429-110z" fill="#fff" fill-rule="evenodd" stroke="#000"/>
   <path d="m501.43 568.08s-44.643 20.179-87.857 84.286c9.6429 55.536 16.071 79.286 20.714 115 57.5 1.4286 99.464-3.0357 116.43-15 26.964-49.107 31.607-62.5 34.286-118.57-29.464-40.357-83.571-65.714-83.571-65.714z" fill="url(#f)" fill-rule="evenodd" stroke="#000"/>
   <path d="m549.29 753.79s9.2857 20.179 6.4286 65c7.8571-12.321 15.357-9.1071 22.143-11.429 76.786-96.607 65-177.86 65-177.86l-18.571-26.429s-15.536 13.75-39.286 31.429c4.1071 46.964-35.714 119.29-35.714 119.29z" fill="#fff" fill-rule="evenodd" stroke="#000"/>
   <path d="m612.14 494.51c36.607 60.357 31.429 135.71 31.429 135.71l-20.714-30s6.25-56.071-10.714-105.71z" fill="url(#e)" fill-rule="evenodd" stroke="#000"/>
   <path d="m554.57 817s-38.386 22.728-87.883 67.68c65.66-26.769 92.176-53.286 108.09-73.741-5.8084-6.3134-20.203 6.0609-20.203 6.0609z" fill="url(#d)" fill-rule="evenodd" stroke="#000"/>
   <path d="m548.51 753.86c10.607 25.128 7.5762 63.64 7.5762 63.64s-53.664 30.431-89.904 67.175c-38.26 21.592-39.522 17.046-63.135 19.193-23.612-4.9245-17.173-3.1567-31.315-10.607-9.5964-18.056-16.794-31.694-21.213-53.538 55.18-39.522 75.256-54.801 84.348-72.226 44.447 1.7678 79.802 1.6415 113.64-13.637z" fill="#fff" fill-rule="evenodd" stroke="#000"/>
   <path d="m233.85 800.83c57.074 25.759 79.423 25.633 115.66 38.891 7.955 35.987 23.234 54.548 23.234 54.548s-41.483 17.14-101.02 2.0203c-44.522-11.307-65.281-33.209-81.822-54.548 20.834-16.794 35.355-29.8 43.942-40.911z" fill="url(#c)" fill-rule="evenodd" stroke="#000"/>
   <path d="m295.71 606.65c64.286 12.143 117.14 42.179 117.14 42.179s13.301 70.469 22.944 116.9c-23.214 37.857-30 41.306-85.714 74.877-50-15-115.8-38.24-115.8-38.24s-32.497-40.785-41.097-111.85c43.929-28.929 82.525-43.153 102.53-83.867z" fill="#fff" fill-rule="evenodd" stroke="#000"/>
   <path d="m192.86 690.93c-37.5-18.214-68.571-64.286-68.571-64.286s-32.5 11.786-38.571 35.714c1.3165 46.352 0.33176 67.735 0.33176 67.735s8.5355 29.632 46.234 73.189c26.429 13.571 30.245 14.311 58.817 38.24 37.143-24.643 43.03-39.668 43.03-39.668s-26.627-41.281-41.27-110.92z" fill="#fff" fill-rule="evenodd" stroke="#000"/>
   <path d="m84.286 660.93-14.531 12.179 17.388 66.393-2.8571-78.571z" fill="url(#b)" fill-rule="evenodd" stroke="#000"/>
  </g>
  <path transform="matrix(-1.1058 0 0 -1.1828 -1432.9 462.26)" d="m-195.91 325.26a355.65 204.29 0 0 1 -611.79 -43.507" fill="#fff" stroke="#000" stroke-linecap="round" stroke-linejoin="round" stroke-width="10.8"/>
  <path transform="matrix(1.0253 .41424 -.44308 1.0967 559.93 488.06)" d="m-231.46 348.48a355.65 204.29 0 0 1 -572.42 -61.726" fill="#fff" stroke="#000" stroke-linecap="round" stroke-linejoin="round" stroke-width="10.8"/>
  <path transform="matrix(-.90935 0 0 -.88384 -1330 476.51)" d="m-195.91 325.26a355.65 204.29 0 0 1 -611.79 -43.507" fill="#fff" stroke="#000" stroke-linecap="round" stroke-linejoin="round" stroke-width="6.9615"/>
  <path transform="matrix(.81018 .32604 -.35012 .86315 481.91 488.52)" d="m-231.46 348.48a355.65 204.29 0 0 1 -572.42 -61.726" fill="#fff" stroke="#000" stroke-linecap="round" stroke-linejoin="round" stroke-width="6.9197"/>
  <path transform="matrix(-1 0 0 -1 1052.6 678.59)" d="m560 307.45a304.29 321.43 0 0 1 -193.69 185.54" fill="#fff" stroke="#000" stroke-linecap="round" stroke-linejoin="round" stroke-width="6.241"/>
  <path transform="matrix(-1 0 0 -1 1024.1 624.31)" d="m619.62 247.32a347.14 332.86 0 0 1 -343.83 270.74" fill="#fff" stroke="#000" stroke-linecap="round" stroke-linejoin="round" stroke-width="9.48"/>
  <use width="744.09448" height="1052.3622" xlink:href="#i"/>
  <path transform="translate(-31.429 -25.714)" d="m1594.3 849.51a351.43 20 0 1 1 -702.86 0 351.43 20 0 1 1 702.86 0z" fill-opacity=".61538"/>
 </g>
</svg>
